# xmcd
#
# Track frame offsets: 
#        150
#        11987
#        27732
#        41495
#        54725
#        71625
#        82412
#        97870
#        110880
#        132232
#        147932
#        160997
#        173565
#        191507
#        207960
#        223792
#        242977
#        260205
#
# Disc length: 3698 seconds
#
# Revision: 0
# Processed by: cddbd v1.5.2PL0 Copyright (c) Steve Scherf et al.
# Submitted via: ExactAudioCopy v0.95b3
#
DISCID=1d0e7012
DTITLE=The Rascals  - The Atlantic Singles, Part 2 (1968-1970) - The C
DTITLE=omplete Atlantic Discography (1965-1971) - Disc 10
DYEAR=1900
DGENRE=
TTITLE0=A Beautiful Morning [Stereo]
TTITLE1=Rainy Day [Stereo]
TTITLE2=People Got To Be Free [Mono]
TTITLE3=My World [Mono]
TTITLE4=A Ray Of Hope [Mono]
TTITLE5=Any Dance'll Do [Mono]
TTITLE6=Heaven [Mono]
TTITLE7=Baby I'm Blue [Mono]
TTITLE8=See [Stereo]
TTITLE9=Away Away [Stereo]
TTITLE10=Carry Me Back [Stereo]
TTITLE11=Real Thing [Stereo]
TTITLE12=I Believe [Mono]
TTITLE13=Hold On [Mono]
TTITLE14=Glory Glory [Stereo]
TTITLE15=You Don't Know [Stereo]
TTITLE16=Right On [Stereo]
TTITLE17=Almost Home [Stereo]
EXTD=
EXTT0=
EXTT1=
EXTT2=
EXTT3=
EXTT4=
EXTT5=
EXTT6=
EXTT7=
EXTT8=
EXTT9=
EXTT10=
EXTT11=
EXTT12=
EXTT13=
EXTT14=
EXTT15=
EXTT16=
EXTT17=
PLAYORDER=
